<svg xmlns="http://www.w3.org/2000/svg" viewBox="0 0 32 40" x="0px" y="0px"><title>music</title><g><g><path d="M28,13a2,2,0,0,1,2,2V28a2,2,0,0,1-2,2H4a2,2,0,0,1-2-2V15a2,2,0,0,1,2-2H28m0-1H4a3,3,0,0,0-3,3V28a3,3,0,0,0,3,3H28a3,3,0,0,0,3-3V15a3,3,0,0,0-3-3Z"/><rect x="1" y="18" width="30" height="1"/><path d="M6,19v6H5V19H6m0-1H5a1,1,0,0,0-1,1v6a1,1,0,0,0,1,1H6a1,1,0,0,0,1-1V19a1,1,0,0,0-1-1Z"/><path d="M10,19v6H9V19h1m0-1H9a1,1,0,0,0-1,1v6a1,1,0,0,0,1,1h1a1,1,0,0,0,1-1V19a1,1,0,0,0-1-1Z"/><path d="M14,19v6H13V19h1m0-1H13a1,1,0,0,0-1,1v6a1,1,0,0,0,1,1h1a1,1,0,0,0,1-1V19a1,1,0,0,0-1-1Z"/><path d="M27,19v6H26V19h1m0-1H26a1,1,0,0,0-1,1v6a1,1,0,0,0,1,1h1a1,1,0,0,0,1-1V19a1,1,0,0,0-1-1Z"/><path d="M23,19v6H22V19h1m0-1H22a1,1,0,0,0-1,1v6a1,1,0,0,0,1,1h1a1,1,0,0,0,1-1V19a1,1,0,0,0-1-1Z"/><path d="M26.5,17a.5.5,0,0,1-.5-.5v-2a.5.5,0,0,1,1,0v2A.5.5,0,0,1,26.5,17Z"/><path d="M22.5,17a.5.5,0,0,1-.5-.5v-2a.5.5,0,0,1,1,0v2A.5.5,0,0,1,22.5,17Z"/><path d="M18.5,17a.5.5,0,0,1-.5-.5v-2a.5.5,0,0,1,1,0v2A.5.5,0,0,1,18.5,17Z"/><path d="M15.5,16H2a.5.5,0,0,1,0-1H15.5a.5.5,0,0,1,0,1Z"/></g></g><text x="0" y="47" fill="#000000" font-size="5px" font-weight="bold" font-family="'Helvetica Neue', Helvetica, Arial-Unicode, Arial, Sans-serif">Created by Foni Alfoniya</text><text x="0" y="52" fill="#000000" font-size="5px" font-weight="bold" font-family="'Helvetica Neue', Helvetica, Arial-Unicode, Arial, Sans-serif">from the Noun Project</text></svg>