<svg xmlns="http://www.w3.org/2000/svg" xmlns:xlink="http://www.w3.org/1999/xlink" version="1.1" x="100%" y="100%" viewBox="0 0 100 125" enable-background="new 0 0 100 100" xml:space="preserve"><path d="M12.668,40.716c-0.57,0-2.559-0.278-5.01,2.706l-1.256,1.49v38.687c0,5.523,4.478,10,10,10h67.195c5.522,0,10-4.477,10-10  V59.801c-2.742,2.94-5.389,4.447-7.886,4.447c-0.117,0-0.233-0.005-0.344-0.008c-0.109,0.003-0.227,0.008-0.335,0.008  c-6.747,0-12.778-10.912-13.925-13.099c-2.277-4.373-6.849-10.434-9.506-10.434c-0.037,0-0.088,0.002-0.131,0.007l-0.256,0.009  l-0.103-0.002c-2.745,0-7.419,6.057-9.727,10.428c-1.153,2.215-7.352,13.428-14.252,13.082c-0.117,0.003-0.227,0.008-0.336,0.008  c-6.776,0-12.785-10.913-13.924-13.102c-2.278-4.37-6.856-10.431-9.507-10.431H12.668z M83.598,6.402H16.402  c-5.522,0-10,4.477-10,10v22.213c2.288-2,4.502-2.96,6.608-2.854c6.886-0.367,13.106,10.867,14.267,13.092  c2.278,4.371,6.85,10.43,9.5,10.43c0.043,0,0.087-0.002,0.131-0.005l0.227-0.019l0.212,0.017c0.051,0.005,0.087,0.007,0.131,0.007  c2.666,0,7.235-6.059,9.515-10.432c1.16-2.188,7.258-13.086,14.121-13.086h0.059c6.922-0.466,13.18,10.855,14.34,13.086  c2.285,4.373,6.849,10.432,9.507,10.432h0.7c1.22,0,3.63-0.568,6.754-4.969l1.125-1.592v-36.32  C93.598,10.879,89.12,6.402,83.598,6.402z"/></svg>
